HIERARCHY
ROOT Hips
{
 OFFSET 0.000000 0.000000 0.000000
 CHANNELS 6 Xposition Yposition Zposition Yrotation Xrotation Zrotation
 JOINT Chest
 {
  OFFSET 0.000000 14.374500 -0.011500
  CHANNELS 3 Yrotation Xrotation Zrotation
  JOINT Chest2
  {
   OFFSET 0.000000 9.203400 0.023400
   CHANNELS 3 Yrotation Xrotation Zrotation
   JOINT Chest3
   {
    OFFSET 0.000000 9.162700 0.000000
    CHANNELS 3 Yrotation Xrotation Zrotation
    JOINT Chest4
    {
     OFFSET 0.000000 9.153300 0.000000
     CHANNELS 3 Yrotation Xrotation Zrotation
     JOINT Neck
     {
      OFFSET 0.000000 13.353600 0.000000
      CHANNELS 3 Yrotation Xrotation Zrotation
      JOINT Head
      {
       OFFSET 0.000000 8.573800 0.049400
       CHANNELS 3 Yrotation Xrotation Zrotation
       End Site
       {
        OFFSET 0.000000 16.219200 0.026100
       }
      }
     }
     JOINT RightCollar
     {
      OFFSET -2.497100 8.876100 0.000000
      CHANNELS 3 Yrotation Xrotation Zrotation
      JOINT RightShoulder
      {
       OFFSET -12.289200 0.000000 0.000000
       CHANNELS 3 Yrotation Xrotation Zrotation
       JOINT RightElbow
       {
        OFFSET 0.000000 -28.194900 0.000000
        CHANNELS 3 Yrotation Xrotation Zrotation
        JOINT RightWrist
        {
         OFFSET 0.000000 -23.009700 0.007900
         CHANNELS 3 Yrotation Xrotation Zrotation
         End Site
         {
          OFFSET 0.000000 -17.151500 0.000000
         }
        }
       }
      }
     }
     JOINT LeftCollar
     {
      OFFSET 2.497100 8.876100 0.000000
      CHANNELS 3 Yrotation Xrotation Zrotation
      JOINT LeftShoulder
      {
       OFFSET 12.289200 0.000000 0.000000
       CHANNELS 3 Yrotation Xrotation Zrotation
       JOINT LeftElbow
       {
        OFFSET 0.000000 -28.194900 0.000000
        CHANNELS 3 Yrotation Xrotation Zrotation
        JOINT LeftWrist
        {
         OFFSET 0.000000 -23.009700 0.007900
         CHANNELS 3 Yrotation Xrotation Zrotation
         End Site
         {
          OFFSET 0.000000 -17.151500 0.000000
         }
        }
       }
      }
     }
    }
   }
  }
 }
 JOINT RightHip
 {
  OFFSET -11.777600 0.056700 0.005700
  CHANNELS 3 Yrotation Xrotation Zrotation
  JOINT RightKnee
  {
   OFFSET 0.000000 -39.966000 -0.004200
   CHANNELS 3 Yrotation Xrotation Zrotation
   JOINT RightAnkle
   {
    OFFSET 0.000000 -41.981900 0.027400
    CHANNELS 3 Yrotation Xrotation Zrotation
    JOINT RightToe
    {
     OFFSET 0.000000 -9.910600 16.950100
     CHANNELS 3 Yrotation Xrotation Zrotation
     End Site
     {
      OFFSET 0.000000 -1.461000 6.191600
     }
    }
   }
  }
 }
 JOINT LeftHip
 {
  OFFSET 11.777600 0.056700 0.005700
  CHANNELS 3 Yrotation Xrotation Zrotation
  JOINT LeftKnee
  {
   OFFSET 0.000000 -39.966000 -0.004200
   CHANNELS 3 Yrotation Xrotation Zrotation
   JOINT LeftAnkle
   {
    OFFSET 0.000000 -41.981900 0.027400
    CHANNELS 3 Yrotation Xrotation Zrotation
    JOINT LeftToe
    {
     OFFSET 0.000000 -9.910600 16.950100
     CHANNELS 3 Yrotation Xrotation Zrotation
     End Site
     {
      OFFSET 0.000000 -1.461000 6.191600
     }
    }
   }
  }
 }
}
MOTION
Frames: 8
Frame Time: 0.008333
0.000000 91.618700 0.000000 0.000000 -5.767877 0.000000 0.000000 11.653817 0.000000 0.000000 -5.885947 0.000000 0.000000 -0.000000 0.000000 0.000000 -0.000000 0.000000 0.000000 12.528835 0.000000 0.000000 0.711642 0.000000 0.000000 -0.000000 0.000000 0.000000 0.000000 -90.000000 0.000000 -2.309062 0.000000 0.000000 2.309062 0.000000 0.000000 -0.000000 0.000000 0.000000 -0.000000 90.000000 0.000000 -2.309062 0.000000 0.000000 2.309062 0.000000 0.000000 8.520406 0.000000 0.000000 1.905762 0.000000 -0.000000 -4.658285 0.000000 0.000000 -0.000000 0.000000 0.000000 8.520406 0.000000 0.000000 1.905762 0.000000 -0.000000 -4.658285 0.000000 0.000000 -0.000000 0.000000
4.102292 152.696115 48.970486 177.188082 -47.247684 -2.551667 4.266343 30.036954 3.147163 0.641573 5.886825 0.480897 1.031924 9.183725 0.785554 3.075931 23.892705 2.500136 0.172516 10.795161 1.552046 -0.175035 -14.300338 1.592432 3.119008 -6.671768 -1.542498 11.768615 -22.528055 -5.484929 16.026688 -61.729639 -4.653693 25.204824 20.760362 -24.184344 -12.473419 -9.908389 -0.200672 -4.327506 -22.751474 3.362130 -14.758426 -59.034642 -6.864949 -16.963965 1.036784 28.290969 6.485471 -30.104156 1.427433 -79.506819 82.513779 -84.241327 -0.134712 -25.159439 9.882025 0.054044 -0.283142 0.032821 -1.650718 -29.742570 -4.851539 113.609935 77.147035 123.409741 4.756610 -2.338991 -8.741725 0.156001 -3.528791 -0.931994
2.952878 145.650435 50.597623 177.323757 -47.224486 -2.758019 4.242635 30.029270 3.279894 0.640817 5.881528 0.478301 1.027270 9.174298 0.782769 3.077457 23.893710 2.501400 0.180940 10.800153 1.569422 -0.172458 -14.314474 1.601274 3.128195 -6.673500 -1.554101 11.761591 -22.521946 -5.474605 16.021165 -61.732212 -4.655481 25.194665 20.748187 -24.208522 -12.478148 -9.934497 -0.167371 -4.308388 -22.706459 3.308515 -14.835062 -59.030607 -6.780256 -16.947286 1.004746 28.298030 6.336219 -30.151497 1.549668 -79.650837 82.517834 -84.386500 -0.125286 -25.259915 9.897327 0.023877 -0.187022 0.013971 -1.814943 -29.746760 -4.722561 113.557544 77.157441 123.351944 4.807580 -2.247973 -8.708786 0.063293 0.139741 0.037021
2.004008 139.848230 51.937144 177.438468 -47.204700 -2.920565 4.209233 30.010498 3.370438 0.643207 5.894017 0.483109 1.027602 9.179863 0.784389 3.077658 23.899154 2.505414 0.181881 10.783808 1.581667 -0.170019 -14.327455 1.601482 3.128589 -6.697083 -1.569565 11.733518 -22.495770 -5.439013 16.071250 -61.748121 -4.694282 25.185789 20.726162 -24.240170 -12.483295 -9.969941 -0.156786 -4.277705 -22.652178 3.259279 -15.006433 -59.019304 -6.607780 -16.910084 0.936261 28.301309 6.221073 -30.189148 1.637512 -79.778740 82.519270 -84.510849 -0.126922 -25.346729 9.906875 0.007871 -0.102829 0.004603 -1.943499 -29.749970 -4.628068 113.511558 77.167496 123.305010 4.837614 -2.172454 -8.689345 0.023026 0.078094 0.013468
1.313607 135.658726 52.902889 177.495201 -47.195837 -2.997613 4.185721 30.012255 3.412311 0.639177 5.908892 0.491083 1.030013 9.172923 0.777926 3.076330 23.903864 2.508031 0.185749 10.765705 1.580577 -0.169575 -14.333316 1.597526 3.136258 -6.716432 -1.587522 11.706086 -22.482666 -5.411461 16.111308 -61.757131 -4.719142 25.165234 20.700566 -24.278303 -12.479926 -10.001604 -0.140083 -4.263035 -22.639509 3.227366 -15.041410 -59.012382 -6.571626 -16.897835 0.896992 28.325868 6.169609 -30.208253 1.677246 -79.871446 82.519361 -84.601329 -0.130898 -25.394518 9.904983 0.005929 -0.063855 0.003466 -2.005388 -29.747832 -4.584408 113.468735 77.172550 123.263284 4.844223 -2.130436 -8.686338 0.012035 0.044641 0.007038
0.879449 133.012558 53.512931 177.543900 -47.186422 -3.062514 4.163677 30.014575 3.450656 0.637406 5.916947 0.494171 1.030198 9.172075 0.777140 3.074791 23.933168 2.531109 0.185223 10.723131 1.555167 -0.162061 -14.342251 1.616159 3.148267 -6.753066 -1.638086 11.671618 -22.476128 -5.373162 16.158158 -61.765055 -4.748850 25.156800 20.685045 -24.303423 -12.472723 -10.059711 -0.134948 -4.236755 -22.601876 3.174293 -15.112494 -59.029773 -6.501816 -16.887929 0.872071 28.327942 6.121864 -30.225459 1.712655 -79.947976 82.519655 -84.681608 -0.138268 -25.438364 9.913386 0.001454 -0.024937 0.000850 -2.058419 -29.749303 -4.548310 113.435121 77.175264 123.229413 4.850181 -2.095352 -8.681885 0.001193 0.015788 0.000698
0.638922 131.556611 53.848458 177.550880 -47.176524 -3.075730 4.156070 30.019222 3.464549 0.640880 5.919009 0.493210 1.026560 9.177519 0.781926 3.075028 23.937220 2.531116 0.190532 10.707385 1.566361 -0.149106 -14.369045 1.653320 3.158761 -6.755286 -1.672360 11.633186 -22.484409 -5.332348 16.167010 -61.770941 -4.745440 25.131095 20.642547 -24.360803 -12.466745 -10.087174 -0.120891 -4.191830 -22.529729 3.099594 -15.276708 -59.068187 -6.352524 -16.869096 0.833269 28.328113 6.110262 -30.239095 1.727128 -79.966345 82.517972 -84.710492 -0.145409 -25.451534 9.919285 -0.000803 -0.015055 -0.000469 -2.074657 -29.758322 -4.530897 113.431723 77.177733 123.221792 4.846275 -2.083724 -8.681416 -0.000196 0.005907 -0.000115
0.525026 130.863576 54.007711 177.559228 -47.169526 -3.086938 4.149941 30.023868 3.473292 0.643797 5.924259 0.495837 1.022693 9.180844 0.782754 3.074974 23.930587 2.527370 0.197514 10.701805 1.584142 -0.144806 -14.385734 1.662333 3.165106 -6.756853 -1.693281 11.602760 -22.481022 -5.294637 16.170463 -61.778907 -4.743148 25.102860 20.598091 -24.407471 -12.458573 -10.101781 -0.102642 -4.177910 -22.488617 3.053790 -15.367518 -59.080331 -6.259631 -16.849251 0.778562 28.345403 6.089128 -30.246979 1.746121 -79.965930 82.506591 -84.723643 -0.153620 -25.457148 9.916958 -0.000972 -0.010916 -0.000568 -2.087262 -29.764797 -4.519287 113.416607 77.181704 123.210392 4.833683 -2.073708 -8.684917 -0.000296 -0.001466 -0.000173
